<?xml version="1.0" encoding="UTF-8"?><!DOCTYPE svg PUBLIC "-//W3C//DTD SVG 1.1//EN" "http://www.w3.org/Graphics/SVG/1.1/DTD/svg11.dtd"><svg xmlns="http://www.w3.org/2000/svg"><symbol id="icon-athlete" viewBox="0 0 496 496">
    <path d="M375.384 310.36L304 289.968v-22.144c13.688-11.32 23.824-26.728 28.712-44.304C352.528 221.16 368 204.44 368 184v-63.584c0-4.272 1.008-8.552 2.92-12.376a27.694 27.694 0 0 1 9.392-10.64l25.528-17.016L390.4 68.8c-13.8-10.352-30.152-17.112-47.168-19.664 7.464-7.992 16.872-14.08 27.288-17.552L393.296 24l-36.832-12.28c-22.624-7.528-46.744-6.312-68.376 3.376l-8.008-4C265.568 3.832 249.32 0 233.08 0 175.144 0 128 47.144 128 105.08V184c0 20.44 15.472 37.16 35.288 39.52 4.888 17.576 15.024 32.984 28.712 44.304v22.144l-71.384 20.392C96.704 317.184 80 339.328 80 364.2V496h336V364.2c0-24.872-16.704-47.016-40.616-53.84zm-39.72-103.728c.168-2.2.336-4.392.336-6.632v-38.528c9.288 3.312 16 12.112 16 22.528 0 10.536-6.872 19.416-16.336 22.632zM144 184c0-10.416 6.712-19.216 16-22.528V200c0 2.24.168 4.432.336 6.632C150.872 203.416 144 194.536 144 184zm16-64v24.808c-5.944 1.216-11.328 3.856-16 7.392v-47.12C144 55.96 183.96 16 233.08 16c13.76 0 27.536 3.256 39.84 9.408L288 32.944l3.576-1.792c17.248-8.624 36.648-10.592 55.12-5.664-9.232 6.024-17.232 13.888-23.384 23.12L313.04 64H328c17.808 0 35.464 5.536 50.096 15.656l-6.656 4.44a43.723 43.723 0 0 0-14.832 16.8 43.825 43.825 0 0 0-4.608 19.52V152.2c-4.672-3.536-10.056-6.184-16-7.392v-38.936l-17.136 10.28a226.56 226.56 0 0 1-57.76 24.56A76.206 76.206 0 0 0 264 120v-14.128l-12.12 7.272a160.443 160.443 0 0 1-75.88 22.72V120h-16zm16 80v-48.128a176.583 176.583 0 0 0 70.24-17.512 59.75 59.75 0 0 1-4.552 12.368l-8.16 16.32 16.04-3.208A242.918 242.918 0 0 0 320 133.968V200c0 39.696-32.304 72-72 72s-72-32.304-72-72zm112 78.288v16.544c-1.368 4.152-9.768 25.168-40 25.168-30.144 0-38.56-20.816-40-25.184v-16.528c12.016 6.16 25.592 9.712 40 9.712s27.984-3.552 40-9.712zM136 480H96v-48h40v48zm264 0h-40v-48h40v48zm0-64h-40v-48h-16v112H152V368h-16v48H96v-51.8c0-17.76 11.928-33.576 29.008-38.448l70.16-20.056C201.72 319.024 217.784 336 248 336s46.28-16.976 52.824-30.304l70.168 20.056C388.072 330.624 400 346.44 400 364.2V416z"/>
    <circle cx="208" cy="176" r="8"/>
    <circle cx="288" cy="176" r="8"/>
    <path d="M264 216c0 8.824-7.176 16-16 16s-16-7.176-16-16h-16c0 17.648 14.352 32 32 32s32-14.352 32-32h-16z"/>
    <path d="M168 368v16h8v40h16v-56z"/>
    <path d="M208 368v16h8v40h16v-56z"/>
</symbol><symbol id="icon-barman" viewBox="0 0 463.002 463.002">
    <g>
        <path d="M183.501 167a7.5 7.5 0 0 0 7.5-7.5v-8a7.5 7.5 0 0 0-15 0v8a7.5 7.5 0 0 0 7.5 7.5z"/>
        <path d="M279.501 167a7.5 7.5 0 0 0 7.5-7.5v-8a7.5 7.5 0 0 0-15 0v8a7.5 7.5 0 0 0 7.5 7.5z"/>
        <path d="M203.415 215.902c6.942 4.511 17.179 7.098 28.086 7.098s21.145-2.587 28.086-7.098a7.5 7.5 0 0 0-8.172-12.578c-4.505 2.928-11.95 4.676-19.914 4.676-7.964 0-15.408-1.748-19.914-4.676a7.499 7.499 0 0 0-10.375 2.203 7.499 7.499 0 0 0 2.203 10.375z"/>
        <path d="M390.521 295.267L303 266.094v-27.405l1.376-.813C323.266 226.714 335 205.402 335 182.257v-36.9a14.18 14.18 0 0 0 8-12.813V97.47c21.202-38.689 8.326-89.672 7.759-91.856a7.5 7.5 0 0 0-9.204-5.358c-21.249 5.706-48.183 3.734-74.23 1.829C228.721-.74 188.803-3.66 162.746 17.698c-5.827 4.776-9.845 10.37-12.614 15.759l-5.879.979c-22.818 3.804-38.289 25.462-34.486 48.281l8.829 52.971c.752 4.514 3.523 8.294 7.601 10.371.589.3 1.193.545 1.804.759v35.438c0 23.145 11.734 44.457 30.624 55.619l1.376.813v27.405L72.48 295.267a47.44 47.44 0 0 0-32.479 45.063v91.17c0 17.369 14.131 31.5 31.5 31.5h143.974l.025.002.024-.002h32.204l.024.002.025-.002h143.724c17.369 0 31.5-14.131 31.5-31.5v-91.17a47.44 47.44 0 0 0-32.48-45.063zm-46.521.305V416h-4.594l-25.761-36.801a7.5 7.5 0 0 0-12.288 0L275.596 416h-7.431c5.772-19.092 12.255-41.897 16.899-62.154a15.33 15.33 0 0 0 2.461.224c2.822 0 5.634-.781 8.139-2.329 4.603-2.845 7.351-7.774 7.351-13.186v-38.111c0-5.411-2.748-10.34-7.351-13.186a15.933 15.933 0 0 0-1.211-.668l4.109-6.164L344 295.572zM321.096 416h-27.19l13.595-19.422L321.096 416zm-81.595-120.001h-16c-4.638 0-8.795 2.058-11.638 5.296l-23.227-11.613-13.635-20.453v-21.677l24.955 14.746c9.633 5.693 20.539 8.702 31.551 8.702 11 0 21.905-3.009 31.539-8.701l24.955-14.747v21.677l-13.643 20.464-23.215 11.607c-2.843-3.242-7.002-5.301-11.642-5.301zm.5 15.501v16a.5.5 0 0 1-.5.5h-16a.5.5 0 0 1-.5-.5v-15.499c.012-.183.011-.366.01-.548a.495.495 0 0 1 .49-.453h16a.5.5 0 0 1 .5.5zm-32 4.636v6.729l-32.276 16.138c-.093.047-.25.125-.486-.021-.237-.147-.237-.321-.237-.426v-38.111c0-.104 0-.279.237-.426.237-.146.394-.068.486-.021l32.276 16.138zm47 .005l32.291-16.144c.093-.046.25-.125.486.021.237.147.237.321.237.426v38.111c0 .104 0 .279-.237.426-.237.146-.393.068-.486.021l-32.291-16.146v-6.715zM124.563 80.253c-2.328-13.972 6.589-27.266 20.121-30.6-.576 3.201-.668 5.304-.678 5.578a7.499 7.499 0 0 0 6.744 7.73 7.499 7.499 0 0 0 8.149-6.23l1.287-7.729c1.484-5.662 4.785-13.731 12.069-19.701 21.426-17.563 56.666-14.984 93.976-12.255 24.378 1.783 49.498 3.622 71.474-.542 2.59 14.729 6.382 49.324-8.687 75.225A7.49 7.49 0 0 0 328 95.5v35.865l-13.25-6.625a6.746 6.746 0 0 1-3.75-6.067v-8.889c0-12.011-9.772-21.783-21.783-21.783H173.784c-12.011 0-21.783 9.772-21.783 21.783v8.889a6.746 6.746 0 0 1-3.75 6.067l-15.022 7.511-8.666-51.998zm18.438 102.004v-38.122l11.958-5.979c7.428-3.714 12.042-11.18 12.042-19.484v-8.889a6.79 6.79 0 0 1 6.783-6.783h115.434a6.79 6.79 0 0 1 6.783 6.783v8.889c0 8.304 4.614 15.77 12.042 19.484l11.958 5.979v38.122c0 17.865-8.911 34.229-23.255 42.705l-41.331 24.423c-7.324 4.328-15.591 6.615-23.92 6.615-8.317 0-16.584-2.288-23.908-6.615l-41.331-24.423c-14.344-8.476-23.255-24.84-23.255-42.705zm-39 265.743h-32.5c-9.098 0-16.5-7.402-16.5-16.5v-91.17a32.459 32.459 0 0 1 22.223-30.832l26.777-8.926V448zm15 .001V295.572l45.437-15.145 4.113 6.169c-.406.205-.807.421-1.199.663-4.603 2.845-7.351 7.774-7.351 13.186v38.111c0 5.411 2.748 10.34 7.351 13.186a15.457 15.457 0 0 0 8.139 2.329c.899 0 1.796-.105 2.687-.264 7.827 34.151 20.891 75.572 26.95 94.194h-86.127zm105-.001h-3.09c-5.099-15.475-20.463-63.16-28.766-100.437l19.718-9.859c2.843 3.238 7 5.296 11.638 5.296h.5v105zm18.34 0h-3.34V343h.5c4.64 0 8.799-2.06 11.642-5.301l19.94 9.97c-8.306 37.25-23.648 84.869-28.742 100.331zm101.66 0h-85.877a1622.113 1622.113 0 0 0 5.425-17h71.946l.012.001.01-.001h8.484v17zm64-16.5c0 9.098-7.402 16.5-16.5 16.5h-32.5V300.572l26.777 8.926a32.459 32.459 0 0 1 22.223 30.832v91.17z"/>
    </g>
</symbol><symbol id="icon-brain" viewBox="0 0 512 512">
    <path d="M306 83c-5.52 0-10 4.48-10 10s4.48 10 10 10 10-4.48 10-10-4.48-10-10-10z"/>
    <path d="M206 83c-5.52 0-10 4.48-10 10s4.48 10 10 10 10-4.48 10-10-4.48-10-10-10z"/>
    <path d="M473.123 298.882C481.706 286 486 269.927 486 256c0-20.996-9.327-40.503-25.332-53.731C464.21 193.805 466 185.002 466 176c0-27.855-16.256-53.803-40.425-65.92 3.667-30.414-16.151-58.292-45.52-65.403C368.56 18.104 342.975 0 316 0c-25.11 0-47.631 14.646-60 36.016C243.63 14.646 221.109 0 196 0c-26.977 0-52.562 18.104-64.055 44.678-29.545 7.156-49.177 35.173-45.52 65.402C62.257 122.196 46 148.145 46 176c0 9.002 1.79 17.805 5.332 26.269C35.327 215.498 26 235.004 26 256c0 14 4.33 30.052 12.877 42.881C30.525 310.671 26 324.644 26 339c0 18.616 7.548 36.35 20.899 49.518C40.035 430.01 73.125 472 116 472c.31 0 .615-.005.914-.014C131.129 496.508 157.515 512 186 512c29.688 0 56.216-17.82 70-43.494C269.784 494.18 296.312 512 326 512c28.485 0 54.871-15.492 69.086-40.014.3.009.604.014.914.014 37.944 0 70-33.43 70-73 0-3.369-.296-6.834-.899-10.482C478.452 375.35 486 357.617 486 339c0-14.356-4.525-28.329-12.877-40.118zM246 151.381A39.741 39.741 0 0 0 226 146c-5.523 0-10 4.477-10 10s4.477 10 10 10c11.028 0 20 8.972 20 20v190.169C231.329 359.528 209.877 349 186 349c-5.523 0-10 4.477-10 10s4.477 10 10 10c33.084 0 60 26.916 60 60 0 34.149-27.477 63-60 63-23.152 0-44.465-13.691-54.299-34.88a10.005 10.005 0 0 0-10.2-5.726c-.707.081-1.41.175-2.113.271-28.46 3.892-60.51-28.335-51.834-64.387a9.999 9.999 0 0 0-3.326-10.025C52.644 367.614 46 353.671 46 339c0-9.071 2.565-17.948 7.338-25.732C65.332 323.098 80.251 329 96 329c5.523 0 10-4.477 10-10s-4.477-10-10-10c-27.139 0-50-24.77-50-53 0-17.125 8.729-32.879 23.352-42.142a10 10 0 0 0 3.347-13.38C68.254 192.639 66 184.403 66 176c0-26.99 22.002-53 50-53 26.636 0 50 24.767 50 53 0 5.523 4.477 10 10 10s10-4.477 10-10c0-39.57-32.056-73-70-73-3.348 0-6.678.271-9.975.784-.005-.263-.025-.519-.025-.784 0-22.317 18.117-40 40-40 10.682 0 20.73 4.161 28.292 11.715 3.907 3.903 10.238 3.899 14.142-.007 3.903-3.908 3.9-10.239-.007-14.142-9.123-9.113-20.662-14.925-33.167-16.851C164.079 30.624 178.744 20 196 20c26.636 0 50 24.766 50 53v78.381zM416 329c15.75 0 30.669-5.903 42.663-15.729C463.435 321.054 466 329.93 466 339c0 14.671-6.644 28.614-18.227 38.253a9.997 9.997 0 0 0-3.326 10.025c1.06 4.403 1.553 8.128 1.553 11.721 0 31.04-28.075 56.126-53.387 52.666a92.449 92.449 0 0 0-2.114-.271 9.993 9.993 0 0 0-10.199 5.726C370.466 478.309 349.151 492 326 492c-32.523 0-60-28.851-60-63 0-33.084 26.916-60 60-60 5.522 0 10-4.477 10-10s-4.478-10-10-10c-23.877 0-45.329 10.528-60 27.169V186c0-11.028 8.972-20 20-20 5.522 0 10-4.477 10-10s-4.478-10-10-10a39.741 39.741 0 0 0-20 5.381V73c0-28.234 23.364-53 50-53 17.256 0 31.92 10.624 40.739 23.714-12.504 1.926-24.042 7.738-33.166 16.851-3.908 3.903-3.912 10.234-.009 14.142 3.903 3.908 10.236 3.911 14.142.008C345.271 67.161 355.318 63 366 63c21.993 0 40 17.787 40 40 0 .264-.02.521-.025.784A64.843 64.843 0 0 0 396 103c-37.944 0-70 33.43-70 73 0 5.523 4.478 10 10 10s10-4.477 10-10c0-28.233 23.364-53 50-53 27.982 0 50 25.997 50 53 0 8.403-2.254 16.639-6.699 24.478a10 10 0 0 0 3.348 13.38C457.271 223.121 466 238.875 466 256c0 28.331-22.941 53-50 53-5.522 0-10 4.477-10 10s4.478 10 10 10z"/>
    <path d="M223.453 214.053c-3.682-4.116-10.003-4.468-14.12-.786C177.265 241.952 126 219.027 126 176c0-5.523-4.477-10-10-10s-10 4.477-10 10c0 34.715 25.407 63.595 58.6 69.057C160.75 257.185 149.386 266 136 266c-5.523 0-10 4.477-10 10s4.477 10 10 10c24.357 0 44.69-17.51 49.102-40.602a69.883 69.883 0 0 0 37.565-17.225c4.116-3.682 4.468-10.004.786-14.12z"/>
    <path d="M116 389c-5.523 0-10 4.477-10 10s4.477 10 10 10c26.636 0 50 24.767 50 53 0 5.523 4.477 10 10 10s10-4.477 10-10c0-39.57-32.056-73-70-73z"/>
    <path d="M196 309c-33.886 0-62.98 18.585-78.3 45.608-2.723 4.805-1.036 10.908 3.768 13.631 4.805 2.723 10.907 1.037 13.631-3.768C147.034 343.415 169.68 329 196 329c5.523 0 10-4.477 10-10s-4.477-10-10-10z"/>
    <path d="M376 266c-13.386 0-24.75-8.815-28.6-20.943C380.593 239.595 406 210.715 406 176c0-5.523-4.478-10-10-10s-10 4.477-10 10c0 27.57-22.43 50-50 50a49.934 49.934 0 0 1-33.333-12.733c-4.115-3.682-10.438-3.331-14.12.786-3.683 4.116-3.33 10.438.786 14.12a69.886 69.886 0 0 0 37.565 17.225C331.31 268.49 351.643 286 376 286c5.522 0 10-4.477 10-10s-4.478-10-10-10z"/>
    <path d="M396 389c-37.944 0-70 33.43-70 73 0 5.523 4.478 10 10 10s10-4.477 10-10c0-28.233 23.364-53 50-53 5.522 0 10-4.477 10-10s-4.478-10-10-10z"/>
    <path d="M394.3 354.609C379.018 327.65 349.964 309 316 309c-5.522 0-10 4.477-10 10s4.478 10 10 10c26.301 0 48.964 14.411 60.899 35.471 2.727 4.811 8.834 6.489 13.631 3.769 4.805-2.723 6.492-8.826 3.77-13.631z"/>
</symbol><symbol id="icon-champagne" viewBox="0 0 463.006 463.006">
    <path d="M391.502 200.005a7.5 7.5 0 0 0-7.5 7.5v.5h-19.239l1.833-33h.905a7.5 7.5 0 0 0 0-15H336.37c2.776-25.34 6.27-51.923 10.418-79.175.823-5.408-1.265-10.67-5.151-14.077l3.428-11.937c5.31-1.229 9.822-5.218 11.43-10.817l4.417-15.379c2.358-8.215-2.406-16.817-10.62-19.176L319.537.61c-3.979-1.144-8.166-.667-11.788 1.338s-6.246 5.302-7.389 9.281l-4.417 15.378a15.4 15.4 0 0 0 1.337 11.787 15.553 15.553 0 0 0 2.608 3.456l-3.426 11.929c-5.101.826-9.664 4.178-11.836 9.199-8.854 20.466-39.74 86.178-45.227 97.028H231v-.5c0-8.547-6.953-15.5-15.5-15.5h-64c-8.547 0-15.5 6.953-15.5 15.5v.5H95.5a7.5 7.5 0 0 0 0 15h.905l1.833 33H79.002v-.5a7.5 7.5 0 0 0-15 0v72a7.5 7.5 0 0 0 15 0v-24.5h21.85l10.323 185.803c.691 12.447 10.997 22.197 23.463 22.197h193.729c12.466 0 22.772-9.75 23.463-22.196l10.323-185.804h21.85v24.5a7.5 7.5 0 0 0 15 0v-72a7.502 7.502 0 0 0-7.501-7.501zm-312.5 40v-17h20.072l.945 17H79.002zM310.361 30.747l4.417-15.378a.478.478 0 0 1 .238-.3.49.49 0 0 1 .24-.064c.066 0 .116.015.141.021l30.757 8.834a.475.475 0 0 1 .299.238c.101.182.057.332.043.38l-4.417 15.378a.475.475 0 0 1-.238.299c-.181.1-.33.057-.38.043l-30.757-8.834c-.049-.014-.198-.057-.299-.237s-.058-.33-.044-.38zm19.751 21.799l-2.484 8.651-16.34-4.693 2.484-8.651 16.34 4.693zm-31.718 16.387c.108-.25.393-.417.615-.35l.925.266.004.001.003.001 31.683 9.099c.219.063.376.354.335.623a2002.02 2002.02 0 0 0-7.626 55.159l-30.504 12.721-18.515-26.134a1998.696 1998.696 0 0 0 23.08-51.386zm23.912 81.898c-.351 3.075-.692 6.134-1.022 9.174h-20.979l22.001-9.174zm-54.344-14.944l17.086 24.118h-28.862a1598.36 1598.36 0 0 0 11.776-24.118zm-116.96 31.676c0-.02.003-.038.003-.058s-.003-.038-.003-.058v-7.942a.5.5 0 0 1 .5-.5h64a.5.5 0 0 1 .5.5v7.961l-.002.039.002.039v31.884c0 .026-.004.051-.004.077s.004.051.004.077v153.569l-33 5.5V199.505a7.5 7.5 0 0 0-15 0v142.394l-17-4.25V167.563zm-39.572 7.442h24.572v17h-23.627l-.945-17zm225.421 264.972a8.5 8.5 0 0 1-8.485 8.028H134.637a8.503 8.503 0 0 1-8.487-8.028l-.499-8.972H337.35l-.499 8.972zm1.333-23.972H124.819l-11.611-209h22.794v136.5a7.5 7.5 0 0 0 5.681 7.276l26.319 6.58v10.144a7.5 7.5 0 0 0 8.733 7.398l48-8c.04-.007.078-.018.118-.026.149-.027.295-.061.441-.097.099-.024.198-.048.295-.076.138-.04.274-.086.409-.134.103-.036.205-.072.306-.112.12-.048.236-.102.353-.156.11-.051.219-.101.326-.157.102-.053.2-.112.299-.17.113-.066.227-.132.335-.204.089-.058.174-.121.26-.183.11-.079.22-.158.325-.243.083-.067.162-.138.242-.208.099-.087.199-.174.293-.266.082-.079.158-.163.236-.246.084-.09.169-.18.249-.274.08-.095.155-.194.231-.292.069-.09.138-.178.203-.271.076-.109.146-.222.216-.335.056-.09.113-.179.165-.272.066-.118.126-.239.187-.361.047-.095.095-.19.138-.287a7.62 7.62 0 0 0 .145-.363c.041-.108.083-.215.119-.325.037-.113.069-.229.101-.345.034-.125.069-.25.097-.377.023-.105.041-.211.06-.318.025-.141.048-.283.065-.426.012-.1.019-.201.026-.302.011-.15.021-.3.023-.452.001-.04.006-.079.006-.12v-152.5h118.794l-11.614 209zm12.445-224H231.002v-17h120.572l-.945 17zm33.372 48h-21.016l.944-17h20.072v17z"/>
</symbol><symbol id="icon-diploma" viewBox="0 0 512 512">
    <path d="M448.308 0H63.692c-4.416 0-8 3.584-8 8v496c0 4.424 3.584 8 8 8h384.624c4.416 0 8-3.576 7.992-8V8c0-4.416-3.576-8-8-8zm-8 496H71.692V16h368.616v480z"/>
    <path d="M103.556 53.144h72.32v16h-72.32z"/>
    <path d="M103.556 84.792h102.48v16h-102.48z"/>
    <path d="M187.668 149.6h136.64v16h-136.64z"/>
    <path d="M100.268 197.072H411.74v16H100.268z"/>
    <path d="M100.268 234.744H411.74v16H100.268z"/>
    <path d="M100.268 272.4H411.74v16H100.268z"/>
    <path d="M194.38 310.096h217.36v16H194.38z"/>
    <path d="M100.268 310.096h50.208v16h-50.208z"/>
    <path d="M222.244 347.76h27.488v16h-27.488z"/>
    <path d="M100.268 347.76h22.848v16h-22.848z"/>
    <path d="M409.316 402.512c-3.272.288-6.512.544-9.712.776.976-2.536 1.304-5.744.16-8.568-1.008-2.584-2.872-3.368-3.992-3.616-.816-.184-1.92-.184-3.128.368-.136-.176-.272-.344-.4-.512-3.128-3.792-8-4.992-12.72-3.168-2.36.928-4.52 2.544-6.336 4.688-2.664-1.72-5.736-1.496-6.936-1.4-3.32.24-7.168.656-10.848 2.592-4.008 2.104-7.168 5.8-8.76 10.232a360.66 360.66 0 0 1-17.688-1.376c-2.36-.328-4.488 1.368-4.896 3.704a4.492 4.492 0 0 0 3.352 5.152 142.232 142.232 0 0 0 17.888 3.224c.072 1.528.216 2.984.384 4.304.736 5.88 2.048 11.552 3.904 16.88a4.502 4.502 0 0 0 4.256 3.024c.496 0 1-.08 1.496-.248 2.352-.824 3.6-3.392 2.768-5.744-1.648-4.72-2.808-9.768-3.464-15.008a53.692 53.692 0 0 1-.248-2.472c4.408.224 8.792.208 13.176 0 .104 2.016.28 3.96.44 5.784a4.507 4.507 0 0 0 4.264 4.104c2.592.36 4.24-1.456 4.656-3.656.44-2.328.768-4.72.96-7.136 2.232-.296 4.576-.704 6.952-1.312 8.216-.32 16.624-.864 25.264-1.632 2.488-.224 4.32-2.416 4.096-4.888-.224-2.504-2.664-4.248-4.888-4.096zm-41.32 1.944c-3.824-.08-7.672-.056-11.456-.152a9.271 9.271 0 0 1 3.048-2.656c2.144-1.12 4.68-1.384 7.32-1.568.92-.072 1.288-.024 1.288-.096.096.176.256.592.416 1.56a30.39 30.39 0 0 0-.616 2.912zm17.416-1.272c-.04.144-.056.272-.072.416-.616.2-1.232.392-1.856.56-1.848.072-3.688.128-5.52.176a78.953 78.953 0 0 0-.16-1.976c1.096-3.016 3.008-5.392 5.008-6.16 1.544-.6 2.248.24 2.48.512.64.784 1 2.288.968 3.584a26.672 26.672 0 0 0-.848 2.888z"/>
    <path d="M163.38 409.024l-17.048 36.44-.344-.608a8.009 8.009 0 0 0-8.368-3.92l-.696.128 16-34.208-14.496-6.784-22.552 48.216a7.997 7.997 0 0 0 .904 8.264 8.007 8.007 0 0 0 7.76 3l10.336-1.864 5.192 9.136a7.984 7.984 0 0 0 6.952 4.048c.112 0 .216 0 .328-.016a7.98 7.98 0 0 0 6.928-4.6l23.6-50.448-14.496-6.784z"/>
    <path d="M229.492 448.296l-22.56-48.216-14.496 6.784 16.008 34.208-.696-.128a8.009 8.009 0 0 0-8.368 3.92l-.344.608-17.056-36.44-14.496 6.784 23.608 50.448a7.984 7.984 0 0 0 7.248 4.608 8.015 8.015 0 0 0 6.96-4.04l5.192-9.136 10.336 1.864a7.951 7.951 0 0 0 7.76-3 7.997 7.997 0 0 0 .904-8.264z"/>
    <path d="M172.676 333.592c-16.024 0-29.064 13.04-29.064 29.064s13.04 29.064 29.064 29.064 29.064-13.04 29.064-29.064-13.04-29.064-29.064-29.064zm0 42.128c-7.208 0-13.064-5.856-13.064-13.064s5.864-13.064 13.064-13.064c7.208 0 13.064 5.856 13.064 13.064s-5.856 13.064-13.064 13.064z"/>
    <path d="M172.676 305.08c-31.744 0-57.568 25.832-57.568 57.568 0 31.736 25.824 57.568 57.568 57.568s57.568-25.832 57.568-57.568c0-31.736-25.824-57.568-57.568-57.568zm0 99.136c-22.92 0-41.568-18.648-41.568-41.568s18.648-41.568 41.568-41.568 41.568 18.648 41.568 41.568-18.648 41.568-41.568 41.568z"/>
</symbol><symbol id="icon-facebook" viewBox="0 0 10 19">
    <title>
        facebook
    </title>
    <path d="M9.766.157v2.946H8.014c-.64 0-1.071.134-1.295.402-.223.268-.335.67-.335 1.205v2.11h3.27l-.435 3.303H6.384v8.471H2.97v-8.47H.123V6.82H2.97V4.387c0-1.384.387-2.457 1.161-3.22C4.904.404 5.934.023 7.222.023c1.093 0 1.941.045 2.544.134z" fill-rule="evenodd"/>
</symbol><symbol id="icon-friendship" viewBox="0 0 512 512">
    <path d="M424.16 222.53a7.501 7.501 0 0 0-9.77 4.131c-4.204 10.365-14.159 17.063-25.362 17.063-7.306 0-14.185-2.849-19.363-8.015a27.023 27.023 0 0 1-5.995-9.037 7.5 7.5 0 0 0-9.763-4.147 7.5 7.5 0 0 0-4.148 9.762 41.952 41.952 0 0 0 9.306 14.035c8.016 7.998 18.657 12.402 29.963 12.402 17.34 0 32.752-10.373 39.263-26.425a7.5 7.5 0 0 0-4.131-9.769z"/>
    <path d="M345.923 171.145a7.5 7.5 0 0 0-7.5 7.5v4.159c0 4.142 3.357 7.5 7.5 7.5s7.5-3.358 7.5-7.5v-4.159a7.5 7.5 0 0 0-7.5-7.5z"/>
    <path d="M432.131 171.145a7.5 7.5 0 0 0-7.5 7.5v4.159c0 4.142 3.357 7.5 7.5 7.5s7.5-3.358 7.5-7.5v-4.159a7.5 7.5 0 0 0-7.5-7.5z"/>
    <path d="M166.954 222.529a7.5 7.5 0 0 0-9.77 4.131c-4.204 10.365-14.159 17.063-25.362 17.063-7.306 0-14.185-2.849-19.363-8.014a27.023 27.023 0 0 1-5.995-9.036 7.499 7.499 0 0 0-9.761-4.149 7.499 7.499 0 0 0-4.149 9.761c2.123 5.262 5.251 9.982 9.305 14.037 8.017 7.997 18.658 12.401 29.963 12.401 17.34 0 32.752-10.373 39.263-26.425a7.5 7.5 0 0 0-4.131-9.769z"/>
    <path d="M88.718 171.145a7.5 7.5 0 0 0-7.5 7.5v4.159c0 4.142 3.357 7.5 7.5 7.5s7.5-3.358 7.5-7.5v-4.159a7.5 7.5 0 0 0-7.5-7.5z"/>
    <path d="M174.926 171.145a7.5 7.5 0 0 0-7.5 7.5v4.159c0 4.142 3.357 7.5 7.5 7.5s7.5-3.358 7.5-7.5v-4.159a7.5 7.5 0 0 0-7.5-7.5z"/>
    <path d="M504.5 129.4a7.5 7.5 0 0 0 7.5-7.5v-20.81c0-29.561-24.05-53.61-53.61-53.61h-10.083l-1.224-2.83a38.404 38.404 0 0 0-35.263-23.16h-49.75c-52.946 0-96.021 43.074-96.021 96.02v153.14c0 22.2 18.061 40.26 40.26 40.26h42.9v10.59H171.63v-14.314a93.577 93.577 0 0 0 24.74-16.944c15.672-14.929 25.56-34.523 28.283-55.779 15.213-.015 27.584-12.396 27.584-27.613v-9.514c0-6.733-2.428-12.906-6.446-17.703l17.261-68.316a7.5 7.5 0 1 0-14.543-3.675l-15.979 63.241a27.456 27.456 0 0 0-7.098-1.148v-25.313a7.5 7.5 0 0 0-9.7-7.17c-41.101 12.609-77.123 11.943-104.17-1.931-20.262-10.394-28.667-24.724-28.73-24.834a7.502 7.502 0 0 0-14.041 3.672c0 18.578-3.966 22.603-23.575 23.926a7.5 7.5 0 0 0-6.995 7.483v24.168a27.457 27.457 0 0 0-7.851 1.379c-3.239-12.275-5.295-21.383-5.879-26.1-1.167-9.385-.358-37.367.052-47.356a7.91 7.91 0 0 0 .006-.308c0-12.28 9.99-22.27 22.271-22.27h11.37c1.989 0 3.896-.79 5.304-2.197l26.828-26.83c5.433-5.432 13.444-7.699 20.912-5.917l94.337 22.439a65.672 65.672 0 0 0 15.198 1.784c14.799 0 29.325-5.076 40.902-14.292.187-.149.42-.337.874-.043.453.292.38.58.322.809l-5.68 22.48a7.5 7.5 0 0 0 5.435 9.109 7.498 7.498 0 0 0 9.108-5.434l5.681-22.482c1.68-6.658-.965-13.365-6.736-17.087-5.774-3.724-12.976-3.364-18.347.915a50.867 50.867 0 0 1-31.56 11.027 50.69 50.69 0 0 1-11.725-1.376L114.71 25.544c-12.496-2.981-25.904.813-34.994 9.902L55.084 60.08H46.82c-20.497 0-37.183 16.632-37.271 37.109-.117 2.91-1.468 37.417.057 49.672.768 6.21 3.359 17.461 7.7 33.453a27.48 27.48 0 0 0-5.89 17.023v9.514c0 15.215 12.364 27.596 27.569 27.613 4.141 32.417 24.755 59.425 53.024 72.716v14.32H76.39c-4.582 0-9.097.507-13.498 1.5-3.661-6.401-10.544-10.734-18.432-10.734H26.195C11.751 312.266 0 324.017 0 338.461v40.803c0 10.542 6.263 19.643 15.26 23.794v79.951a7.5 7.5 0 0 0 7.5 7.5h218.13a7.5 7.5 0 0 0 7.5-7.5V382.63c0-18.4-8.183-34.914-21.087-46.13H349.21v3.74c0 21.632 32.468 40.348 36.17 42.411a7.5 7.5 0 0 0 7.301 0c3.701-2.063 36.158-20.78 36.158-42.411v-3.74h15.62c25.437 0 46.13 20.694 46.13 46.13v92.88h-21.022v-50.25c0-4.142-3.357-7.5-7.5-7.5s-7.5 3.358-7.5 7.5v50.25H323.49v-86.26a7.5 7.5 0 0 0-7.5-7.5H271a7.5 7.5 0 0 0-7.5 7.5 7.5 7.5 0 0 0 7.5 7.5h37.49v86.26a7.5 7.5 0 0 0 7.5 7.5h182.1a7.5 7.5 0 0 0 7.5-7.5V382.63c0-33.707-27.423-61.13-61.13-61.13h-15.62v-10.59h42.91c22.194 0 40.25-18.061 40.25-40.26V157.31c0-4.142-3.357-7.5-7.5-7.5s-7.5 3.358-7.5 7.5v16.975a27.415 27.415 0 0 0-14.373-4.551v-36.16c0-17.237-5.187-33.803-15-47.908a7.498 7.498 0 0 0-10.914-1.515c-32.938 27.027-74.579 41.911-117.253 41.911-11.826 0-23.615-1.118-35.04-3.323a7.501 7.501 0 0 0-8.911 6.981 74.251 74.251 0 0 0-.093 3.854v36.161a27.432 27.432 0 0 0-14.366 4.551V117.51c0-44.674 36.346-81.02 81.021-81.02h49.75a23.41 23.41 0 0 1 21.496 14.118l3.18 7.35a7.501 7.501 0 0 0 6.884 4.522h15.01c21.29 0 38.61 17.32 38.61 38.61v20.81a7.498 7.498 0 0 0 7.499 7.5zM53.329 226.576a7.5 7.5 0 0 0-7.49-7.113h-6.822c-6.948 0-12.601-5.658-12.601-12.613v-9.514c0-6.955 5.652-12.613 12.601-12.613h6.705a7.5 7.5 0 0 0 7.5-7.5v-24.891c15.63-2.231 24.427-8.32 28.249-20.189 5.344 5.164 12.666 10.96 22.271 16.017 35.02 18.437 75.794 14.311 106.69 6.194v22.869a7.5 7.5 0 0 0 7.5 7.5h6.692c6.954 0 12.612 5.658 12.612 12.613v9.514c0 6.955-5.658 12.613-12.612 12.613h-6.822a7.5 7.5 0 0 0-7.49 7.111c-1.046 20.129-9.672 38.883-24.288 52.807a78.46 78.46 0 0 1-24.749 15.975 4.207 4.207 0 0 0-.14.06 78.51 78.51 0 0 1-29.309 5.644 78.495 78.495 0 0 1-29.297-5.642c-.141-.062-.287-.116-.432-.17-27.401-11.185-47.151-37.389-48.768-68.672zm103.301 86.139v27.525c0 6.631-2.579 12.862-7.264 17.546-4.683 4.684-10.914 7.263-17.546 7.263-13.681 0-24.811-11.129-24.811-24.81V312.72a93.792 93.792 0 0 0 24.818 3.34 93.828 93.828 0 0 0 24.803-3.345zM15 379.265v-40.804c0-6.173 5.022-11.195 11.195-11.195H44.46a6.241 6.241 0 0 1 6.234 6.235v50.724a6.242 6.242 0 0 1-6.234 6.235H26.195c-6.173 0-11.195-5.022-11.195-11.195zm218.39 3.365v92.88h-21.027v-50.25c0-4.142-3.357-7.5-7.5-7.5s-7.5 3.358-7.5 7.5v50.25H66.281v-50.25c0-4.142-3.357-7.5-7.5-7.5s-7.5 3.358-7.5 7.5v50.25H30.26v-70.05h14.2c11.709 0 21.234-9.526 21.234-21.235v-46.472a46.218 46.218 0 0 1 10.695-1.253h15.62v3.74c0 21.951 17.859 39.81 39.811 39.81 10.639 0 20.637-4.14 28.153-11.657 7.517-7.517 11.656-17.515 11.656-28.153v-3.74h15.63c25.437 0 46.131 20.694 46.131 46.13zm180.45-42.39c0 8.314-13.497 20.06-24.81 27.142-11.321-7.084-24.82-18.829-24.82-27.142v-27.52a93.746 93.746 0 0 0 49.63-.008v27.528zM497 229.903v40.747c0 13.929-11.327 25.26-25.25 25.26h-24.706a94.664 94.664 0 0 0 6.535-5.67c15.67-14.938 25.558-34.533 28.281-55.777a27.433 27.433 0 0 0 15.14-4.56zm-200.777-45.18h6.692a7.5 7.5 0 0 0 7.5-7.5v-38.259a201.53 201.53 0 0 0 29.044 2.099c43.271 0 85.561-14.157 120.028-40.025 5.345 9.96 8.139 21.066 8.139 32.537v43.649a7.5 7.5 0 0 0 7.5 7.5h6.705c6.948 0 12.601 5.658 12.601 12.613v9.514c0 6.955-5.652 12.613-12.601 12.613h-6.822a7.5 7.5 0 0 0-7.49 7.111c-1.045 20.118-9.672 38.873-24.288 52.807a78.47 78.47 0 0 1-24.621 15.919 7.166 7.166 0 0 0-.394.168c-9.179 3.669-19.058 5.592-29.195 5.592a78.466 78.466 0 0 1-29.287-5.64c-.145-.064-.294-.119-.443-.174-27.394-11.186-47.139-37.389-48.755-68.67a7.5 7.5 0 0 0-7.49-7.113h-6.822c-6.954 0-12.612-5.658-12.612-12.613v-9.515h-.001c0-6.955 5.658-12.613 12.612-12.613zm-.031 49.74c3.186 24.946 16.131 46.688 34.804 61.447H306.31c-13.929 0-25.26-11.332-25.26-25.26v-40.746a27.445 27.445 0 0 0 15.142 4.559z"/>
</symbol><symbol id="icon-instagram" viewBox="0 0 512 512">
    <path d="M373.659 0H138.341C62.06 0 0 62.06 0 138.341v235.318C0 449.94 62.06 512 138.341 512h235.318C449.94 512 512 449.94 512 373.659V138.341C512 62.06 449.94 0 373.659 0zm96.977 373.659c0 53.473-43.503 96.977-96.977 96.977H138.341c-53.473 0-96.977-43.503-96.977-96.977V138.341c0-53.473 43.503-96.977 96.977-96.977h235.318c53.473 0 96.977 43.503 96.977 96.977v235.318z"/>
    <path d="M370.586 238.141c-3.64-24.547-14.839-46.795-32.386-64.342-17.547-17.546-39.795-28.746-64.341-32.385a114.73 114.73 0 0 0-33.682 0c-30.336 4.499-57.103 20.541-75.372 45.172-18.269 24.631-25.854 54.903-21.355 85.237 4.499 30.335 20.541 57.102 45.172 75.372 19.996 14.831 43.706 22.619 68.153 22.619 5.667 0 11.375-.418 17.083-1.265 30.336-4.499 57.103-20.541 75.372-45.172 18.27-24.63 25.855-54.901 21.356-85.236zm-102.795 89.491c-19.405 2.882-38.77-1.973-54.527-13.66-15.757-11.687-26.019-28.811-28.896-48.216-2.878-19.405 1.973-38.77 13.66-54.527 11.688-15.757 28.811-26.019 48.217-28.897a73.42 73.42 0 0 1 21.545.001c32.231 4.779 57.098 29.645 61.878 61.877 5.94 40.058-21.817 77.482-61.877 83.422z"/>
    <path d="M400.049 111.951a20.83 20.83 0 0 0-14.625-6.058 20.826 20.826 0 0 0-14.625 6.058 20.814 20.814 0 0 0-6.058 14.625 20.814 20.814 0 0 0 6.058 14.625 20.83 20.83 0 0 0 14.625 6.058 20.826 20.826 0 0 0 14.625-6.058 20.83 20.83 0 0 0 6.058-14.625 20.826 20.826 0 0 0-6.058-14.625z"/>
</symbol></svg>